<svg width="24" height="20" viewBox="0 0 24 20" fill="none" xmlns="http://www.w3.org/2000/svg">
<path d="M7.69507 14.4023L20.3946 0.641399C20.7892 0.213799 21.2915 0 21.9013 0C22.5112 0 23.0135 0.213799 23.4081 0.641399C23.8027 1.069 24 1.61322 24 2.27405C24 2.93489 23.8027 3.47911 23.4081 3.90671L9.20179 19.3003C8.7713 19.7668 8.26906 20 7.69507 20C7.12108 20 6.61883 19.7668 6.18834 19.3003L0.591927 13.2362C0.197309 12.8086 0 12.2643 0 11.6035C0 10.9427 0.197309 10.3984 0.591927 9.97084C0.986546 9.54324 1.48879 9.32945 2.09865 9.32945C2.70852 9.32945 3.21076 9.54324 3.60538 9.97084L7.69507 14.4023Z" fill="#8A8A8A"/>
</svg>
